<svg width="20" height="20" viewBox="0 0 20 20" fill="none" xmlns="http://www.w3.org/2000/svg">
<path d="M11.8917 10.0007L17.6044 4.2849C17.8555 4.03401 17.9967 3.69367 17.9968 3.33874C17.997 2.98381 17.856 2.64337 17.605 2.3923C17.3541 2.14124 17.0136 2.00013 16.6585 2C16.3034 1.99988 15.9629 2.14075 15.7117 2.39164L9.99904 8.10474L4.28504 2.3943C4.03423 2.14359 3.69406 2.00274 3.33937 2.00274C2.98467 2.00274 2.64451 2.14359 2.3937 2.3943C2.14289 2.64501 2.00199 2.98504 2.00199 3.3396C2.00199 3.69416 2.14289 4.03419 2.3937 4.2849L8.10637 9.998L2.3937 15.7111C2.14201 15.9618 2.00026 16.3022 1.99964 16.6574C1.99901 17.0126 2.13956 17.3534 2.39037 17.605C2.64118 17.8566 2.98169 17.9983 3.33701 17.9989C3.69233 17.9996 4.03335 17.8591 4.28504 17.6084L9.99771 11.8953L15.7117 17.6084C15.8361 17.7326 15.9837 17.8311 16.1461 17.8983C16.3086 17.9655 16.4827 18.0001 16.6585 18C16.8343 17.9999 17.0084 17.9653 17.1708 17.898C17.3332 17.8306 17.4808 17.732 17.605 17.6077C17.7293 17.4834 17.8279 17.3358 17.8951 17.1734C17.9623 17.011 17.9969 16.837 17.9968 16.6613C17.9968 16.4855 17.9621 16.3115 17.8947 16.1492C17.8274 15.9868 17.7287 15.8393 17.6044 15.7151L11.8917 10.0007Z" fill="#595959"/>
</svg>
