<svg width="24" height="24" viewBox="0 0 24 24" fill="none" xmlns="http://www.w3.org/2000/svg">
<path d="M5.7832 18.4C5.7832 19.5 6.66807 20.4 7.74958 20.4H15.6151C16.6966 20.4 17.5815 19.5 17.5815 18.4V8.39999C17.5815 7.29999 16.6966 6.39999 15.6151 6.39999H7.74958C6.66807 6.39999 5.7832 7.29999 5.7832 8.39999V18.4ZM17.5815 3.39999H15.1235L14.4255 2.68999C14.2485 2.50999 13.9929 2.39999 13.7372 2.39999H9.62748C9.37185 2.39999 9.11622 2.50999 8.93925 2.68999L8.24118 3.39999H5.7832C5.24244 3.39999 4.8 3.84999 4.8 4.39999C4.8 4.94999 5.24244 5.39999 5.7832 5.39999H17.5815C18.1223 5.39999 18.5647 4.94999 18.5647 4.39999C18.5647 3.84999 18.1223 3.39999 17.5815 3.39999Z" fill="#BFBFBF"/>
</svg>
